<?xml version="1.0" standalone="no"?>
<!DOCTYPE svg PUBLIC "-//W3C//DTD SVG 20010904//EN" "http://www.w3.org/TR/2001/REC-SVG-20010904/DTD/svg10.dtd">
<svg version="1.0" xmlns="http://www.w3.org/2000/svg"
    width="3848.000000pt" height="3848.000000pt" viewBox="0 0 3848.000000 3848.000000"
    preserveAspectRatio="xMidYMid meet">

    <g transform="translate(0.000000,3848.000000) scale(0.100000,-0.100000)"
        fill="#000000" stroke="none">
        <path
            d="M0 19240 l0 -19240 533 2 532 3 5 34 c7 51 30 52 30 2 l0 -41 18690
0 18690 0 0 19240 0 19240 -19240 0 -19240 0 0 -19240z m19116 10847 c12 -6
44 -24 72 -39 28 -16 70 -42 94 -58 24 -17 60 -42 81 -56 21 -13 47 -34 57
-44 11 -11 25 -20 30 -20 6 0 19 -9 30 -20 21 -21 64 -49 110 -72 24 -12 56
-37 86 -65 7 -7 17 -13 22 -13 10 0 105 -59 129 -80 7 -6 16 -11 20 -12 9 -3
28 -18 80 -65 32 -30 47 -38 56 -30 2 1 19 -10 39 -25 19 -15 47 -30 62 -34
14 -3 26 -9 26 -13 0 -4 21 -20 46 -36 25 -16 51 -36 57 -45 7 -9 27 -22 45
-29 17 -7 32 -21 32 -30 0 -12 2 -13 9 -3 6 11 10 10 15 -4 3 -9 9 -14 12 -11
4 3 15 -3 27 -14 11 -10 27 -19 34 -19 7 0 13 -7 13 -16 0 -10 6 -14 15 -10 8
3 15 0 15 -6 0 -16 40 -48 61 -48 10 0 24 -7 32 -15 9 -8 17 -11 19 -5 2 5 19
-5 38 -22 19 -17 47 -35 63 -40 16 -6 27 -17 27 -29 0 -10 7 -19 15 -19 8 0
15 -4 15 -10 0 -5 9 -10 20 -10 11 0 29 -9 39 -19 11 -11 22 -17 25 -14 3 4 6
1 6 -5 0 -7 11 -12 25 -12 14 0 25 -5 25 -12 0 -9 3 -9 12 0 15 15 28 15 28 1
0 -5 -4 -7 -10 -4 -5 3 -10 1 -10 -4 0 -6 5 -11 11 -11 13 0 69 -61 69 -75 0
-17 47 -58 58 -51 5 3 21 -3 34 -14 14 -11 28 -16 32 -13 3 3 6 2 6 -4 0 -6
21 -20 48 -31 26 -12 66 -38 88 -59 23 -21 47 -37 54 -35 6 2 24 -7 38 -20 30
-28 60 -42 81 -39 8 1 10 -2 5 -10 -4 -8 -3 -10 4 -5 17 10 52 -12 46 -29 -4
-9 0 -15 8 -15 8 0 23 -9 33 -20 22 -24 43 -27 24 -3 -13 15 -12 15 9 4 12 -6
22 -16 22 -22 0 -6 6 -7 13 -3 6 4 9 4 5 -1 -4 -4 -3 -16 3 -27 7 -13 14 -16
26 -9 11 6 26 3 47 -10 32 -20 90 -66 69 -54 -7 3 -13 1 -13 -4 0 -6 6 -11 13
-11 8 0 22 -9 32 -20 10 -11 24 -20 31 -20 7 0 22 -12 33 -26 11 -14 25 -23
31 -19 5 3 10 0 10 -7 0 -21 51 -70 67 -64 8 3 11 1 8 -4 -3 -6 5 -14 19 -20
14 -5 26 -14 26 -20 0 -5 7 -10 15 -10 8 0 14 -5 12 -12 -1 -6 7 -14 18 -16
11 -2 33 -15 51 -28 17 -13 38 -24 48 -24 9 0 19 -6 22 -14 3 -8 19 -18 35
-21 16 -4 44 -20 62 -36 43 -39 48 -19 5 21 l-33 32 48 -33 c52 -36 65 -49 47
-49 -18 0 0 -42 31 -72 16 -16 38 -28 49 -28 12 0 38 -11 58 -25 20 -14 42
-25 48 -25 7 0 14 -5 16 -11 2 -5 18 -11 36 -11 19 -1 38 -8 45 -18 7 -10 17
-18 22 -19 10 -1 11 -5 14 -36 0 -8 5 -15 10 -15 18 0 100 -55 101 -67 0 -7 6
-10 13 -7 7 2 31 -13 54 -35 22 -22 44 -37 47 -34 3 4 6 2 6 -4 0 -6 12 -16
28 -22 31 -12 80 -41 100 -58 7 -7 20 -13 28 -13 8 0 14 -4 14 -10 0 -5 5 -10
11 -10 15 0 39 -26 39 -42 0 -10 3 -9 10 2 5 8 10 10 10 4 0 -6 20 -21 46 -33
25 -13 57 -34 71 -47 14 -13 32 -24 39 -24 8 0 14 -4 14 -8 0 -5 11 -15 25
-22 14 -7 25 -18 25 -24 0 -6 21 -22 46 -36 26 -13 52 -30 58 -36 7 -6 27 -19
45 -28 17 -9 35 -24 38 -32 3 -7 11 -14 19 -14 8 0 14 -4 14 -9 0 -5 14 -14
32 -20 17 -6 40 -18 49 -27 10 -9 25 -14 34 -10 9 3 14 2 11 -3 -3 -5 1 -14 9
-21 12 -10 15 -10 15 1 1 11 3 10 13 -2 7 -8 20 -18 30 -22 10 -4 16 -11 12
-16 -3 -5 4 -12 15 -16 11 -3 20 -11 20 -16 0 -5 6 -9 13 -7 14 2 83 -39 79
-48 -2 -4 6 -12 17 -18 121 -67 211 -134 211 -155 0 -7 4 -10 9 -6 5 3 16 -2
24 -10 9 -8 18 -15 21 -15 4 0 24 -11 46 -25 22 -14 45 -25 52 -25 7 0 35 -20
62 -45 26 -25 55 -45 62 -45 8 0 14 -4 14 -9 0 -5 8 -12 18 -15 9 -3 33 -20
51 -37 19 -17 58 -48 87 -70 30 -22 54 -45 54 -52 0 -8 4 -6 10 3 8 13 10 12
10 -2 0 -10 7 -18 16 -18 8 0 32 -11 52 -25 20 -14 42 -25 48 -25 7 0 14 -4
16 -9 2 -8 28 -15 70 -20 4 -1 5 -8 2 -16 -5 -11 1 -15 19 -15 13 0 36 -9 50
-20 14 -11 30 -20 35 -20 5 0 15 -6 21 -14 9 -11 9 -15 -1 -20 -9 -4 -9 -5 2
-5 31 2 40 -1 40 -15 0 -7 11 -21 25 -30 14 -9 25 -12 25 -7 0 6 7 8 16 4 8
-3 13 -11 10 -18 -2 -7 8 -19 22 -26 15 -8 38 -24 52 -37 14 -12 48 -37 75
-55 28 -17 52 -34 55 -37 3 -3 86 -60 185 -125 99 -66 198 -134 220 -151 56
-42 131 -85 143 -82 5 2 10 -1 11 -5 1 -19 54 -55 93 -62 11 -3 23 -7 27 -11
3 -4 -3 -4 -14 0 l-20 7 20 -19 c25 -24 119 -77 110 -61 -5 8 -1 8 14 -1 12
-6 19 -15 16 -20 -3 -5 5 -16 17 -24 15 -11 24 -12 29 -5 4 6 15 -1 27 -18 12
-15 22 -22 22 -14 0 11 3 11 15 1 13 -11 13 -15 3 -21 -9 -6 -3 -9 15 -9 19 0
26 -4 21 -12 -4 -6 -3 -8 4 -5 15 10 42 -3 42 -20 0 -7 6 -13 13 -12 6 1 21
-2 31 -6 19 -8 19 -9 0 -17 -16 -7 -15 -7 6 -6 27 2 76 -20 66 -29 -3 -4 -16
2 -27 13 -16 14 -21 15 -17 4 2 -8 19 -25 38 -37 18 -13 29 -23 24 -23 -5 0
10 -11 33 -23 23 -12 54 -32 70 -45 70 -56 235 -173 270 -190 21 -11 68 -41
106 -66 211 -144 220 -151 261 -192 22 -21 141 -104 150 -104 3 0 38 -22 78
-49 40 -26 84 -54 98 -61 24 -12 194 -125 215 -142 13 -12 153 -110 173 -123
9 -5 23 -16 30 -23 21 -19 148 -104 212 -141 30 -18 77 -48 105 -67 27 -19 55
-34 62 -34 7 0 13 -5 13 -11 0 -5 5 -7 10 -4 5 3 10 2 10 -3 0 -6 14 -15 30
-21 17 -5 50 -26 73 -44 23 -19 67 -50 97 -70 30 -19 65 -44 77 -56 12 -12 25
-21 28 -21 13 0 105 -66 105 -76 0 -10 -82 -52 -115 -59 -34 -7 -112 -15 -190
-21 -170 -11 -1991 -17 -4570 -14 -455 0 -832 -3 -890 -9 -55 -6 -152 -8 -215
-6 -63 2 -142 3 -175 3 -134 -2 -300 8 -316 18 -8 5 -18 9 -24 10 -5 1 -28 5
-49 8 -22 4 -53 15 -71 26 -19 12 -46 18 -70 17 -36 -2 -39 0 -40 23 0 15 -5
24 -12 23 -7 -2 -12 0 -12 5 3 19 -2 23 -16 12 -13 -11 -13 -14 2 -27 16 -13
16 -13 -6 -3 -17 9 -20 15 -12 23 16 16 13 28 -6 25 -12 -2 -18 3 -17 15 2 14
-1 15 -12 6 -12 -9 -12 -15 -2 -27 17 -20 6 -14 -82 47 -36 25 -104 73 -152
106 -104 72 -304 214 -373 265 -92 67 -307 214 -630 430 -348 232 -375 250
-605 415 -85 61 -220 155 -300 210 -549 373 -614 416 -651 432 -24 10 -35 6
-105 -36 -169 -102 -1383 -920 -1665 -1121 -96 -69 -213 -151 -260 -183 -261
-179 -436 -301 -503 -351 -87 -64 -313 -216 -403 -269 -96 -59 -141 -74 -251
-91 -56 -8 -107 -18 -113 -22 -11 -6 -4609 -18 -4739 -12 -66 3 -677 2 -1135
-3 l-250 -2 -75 32 c-134 57 -138 62 -125 122 9 40 93 128 105 109 6 -9 12 -4
24 19 9 17 19 31 22 31 3 0 3 -4 -1 -9 -12 -20 13 -19 31 1 17 19 17 21 2 15
-10 -4 -18 -5 -18 -2 0 7 194 146 260 186 36 22 126 82 200 134 276 193 656
444 795 525 155 91 1509 990 1725 1144 238 171 335 237 460 311 63 38 142 88
175 112 33 23 161 111 285 194 124 84 250 171 280 193 58 43 75 55 310 209 80
52 217 145 305 207 88 61 259 177 380 257 213 141 388 259 612 411 59 40 132
93 162 118 30 25 81 62 114 82 33 20 99 66 148 102 48 36 116 83 151 104 34
22 97 70 140 107 43 37 102 81 131 98 28 16 126 80 217 141 91 61 252 168 358
238 107 70 240 161 295 203 156 116 226 161 237 154 6 -4 9 -1 8 6 -2 6 27 32
64 58 81 56 138 89 121 70 -7 -7 -13 -19 -13 -27 0 -20 83 30 86 52 2 13 -2
16 -14 12 -27 -9 35 40 123 98 109 72 114 74 96 53 -16 -20 -9 -32 15 -23 10
4 14 13 11 25 -5 21 -5 21 161 135 61 42 142 99 178 126 36 28 70 50 76 50 6
0 -10 -14 -36 -31 -25 -17 -51 -40 -57 -51 -6 -11 -7 -19 -2 -16 70 31 149 73
151 80 2 4 10 8 17 8 7 0 15 7 19 15 3 8 11 15 17 15 7 0 27 11 46 26 18 14
33 23 33 20 0 -3 17 11 37 32 21 20 41 38 45 38 4 1 17 2 29 3 11 0 41 20 66
44 76 71 83 77 89 77 3 0 19 11 36 25 16 14 38 25 48 25 9 0 23 7 30 15 7 8
19 15 27 15 7 0 16 7 19 15 4 8 10 12 15 9 5 -3 12 2 15 11 4 10 13 13 24 10
10 -3 21 -1 25 5 4 6 13 9 21 6 7 -3 19 1 27 8 25 26 81 32 113 13z m2645
-1735 c-7 -2 -23 6 -35 18 l-21 22 35 -18 c21 -10 30 -19 21 -22z m125 -80
c-4 -3 -14 2 -24 12 -16 18 -16 18 6 6 13 -6 21 -14 18 -18z m109 -62 c3 -6
-1 -7 -9 -4 -18 7 -21 14 -7 14 6 0 13 -4 16 -10z m630 -450 c3 -5 1 -10 -4
-10 -6 0 -11 5 -11 10 0 6 2 10 4 10 3 0 8 -4 11 -10z m50 -30 c3 -5 2 -10 -4
-10 -5 0 -13 5 -16 10 -3 6 -2 10 4 10 5 0 13 -4 16 -10z m3310 -2250 c3 -5 1
-10 -4 -10 -6 0 -11 5 -11 10 0 6 2 10 4 10 3 0 8 -4 11 -10z m-6911 -3999
c10 -11 15 -24 12 -29 -3 -5 8 -12 25 -16 40 -8 617 -8 647 0 13 4 22 14 22
25 0 28 24 33 56 12 26 -17 58 -18 415 -19 213 -1 405 2 426 5 73 13 113 -2
165 -61 44 -48 48 -58 48 -103 0 -38 3 -46 11 -35 7 11 9 -306 4 -1080 -11
-1812 -13 -2134 -19 -3665 -9 -2321 -18 -3870 -25 -4384 -5 -417 -4 -475 9
-478 8 -2 924 -5 2035 -7 1438 -2 2046 -6 2109 -15 49 -6 91 -9 93 -7 2 2 5
2190 6 4862 2 4139 4 4863 16 4884 30 52 45 57 210 64 245 10 2598 16 2676 6
39 -4 189 -11 335 -14 163 -4 284 -11 314 -19 92 -24 84 69 91 -1037 3 -536
10 -1065 15 -1175 11 -244 16 -1922 12 -4610 -1 -1111 1 -2794 4 -3740 5
-1269 3 -1736 -5 -1780 -6 -34 -14 -216 -16 -420 -3 -198 -8 -429 -11 -512
l-6 -153 -5763 0 c-4600 0 -5765 3 -5772 13 -4 6 -7 2204 -5 4883 l3 4871
-995 8 c-547 4 -1515 4 -2152 0 l-1157 -8 6 -2221 c3 -1221 5 -2459 4 -2751
-1 -291 -1 -1492 0 -2667 l2 -2138 -42 0 c-376 -1 -3465 -2 -3523 -1 -65 1
-87 5 -105 20 l-24 19 -7 989 c-5 772 -9 1014 -21 1108 -18 154 -22 301 -22
945 1 1104 16 8443 19 9205 3 722 10 963 31 1053 3 12 38 56 77 97 l71 75
2331 -5 c1282 -3 3443 -6 4801 -7 2247 -1 2474 1 2500 15 39 21 48 21 69 -2z
m-17004 -6305 c0 -25 -12 -46 -26 -46 -20 0 -29 27 -14 45 16 19 40 19 40 1z
m1350 -1540 c0 -16 -5 -23 -15 -22 -21 3 -28 13 -22 31 10 25 37 18 37 -9z
m9585 -346 c8 -13 -20 -24 -41 -16 -20 8 -9 26 16 26 10 0 22 -5 25 -10z
m-9505 -2208 c0 -18 -5 -29 -15 -29 -21 0 -26 24 -9 42 21 21 24 19 24 -13z
m1600 -1042 c0 -13 -7 -20 -20 -20 -19 0 -27 20 -13 33 13 14 33 6 33 -13z
m-1995 -3761 c0 -15 -7 -25 -18 -27 -22 -4 -33 24 -17 43 18 21 35 13 35 -16z
m2165 -708 c0 -22 -25 -45 -40 -36 -13 8 -13 28 2 43 18 18 38 14 38 -7z
m1915 -4170 c-8 -25 -33 -28 -42 -5 -4 11 1 22 12 30 23 17 39 4 30 -25z" />
        <path
            d="M18103 29545 c-6 -5 -25 -21 -42 -34 -17 -13 -31 -28 -31 -33 0 -11
43 1 48 13 2 5 11 9 20 9 8 0 12 3 9 7 -4 3 3 11 15 17 28 14 33 32 10 32 -10
0 -24 -5 -29 -11z" />
        <path d="M17313 29010 c-13 -5 -23 -12 -23 -15 0 -9 40 1 52 13 14 14 2 15
-29 2z" />
        <path
            d="M17190 28920 c0 -5 5 -10 10 -10 6 0 10 5 10 10 0 6 -4 10 -10 10 -5
0 -10 -4 -10 -10z" />
        <path d="M21972 23614 c-14 -16 -5 -18 17 -5 7 5 9 11 5 14 -5 3 -15 -1 -22
-9z" />
    </g>
</svg>